<svg width="24" height="21" viewBox="0 0 24 21" fill="none" xmlns="http://www.w3.org/2000/svg">
<path d="M12 1.4999C11.7968 1.4999 11.6093 1.4174 11.4675 1.2824C11.4375 1.2449 11.4 1.2074 11.3775 1.1624C11.3475 1.1249 11.325 1.0799 11.31 1.0349C11.2875 0.989903 11.2725 0.944902 11.2642 0.899902C11.2575 0.847402 11.25 0.802402 11.25 0.749902C11.25 0.554902 11.3317 0.359902 11.4675 0.217402C11.745 -0.0600977 12.2475 -0.0600977 12.5325 0.217402C12.6675 0.359902 12.75 0.554902 12.75 0.749902C12.75 0.802402 12.7425 0.847402 12.7343 0.899902C12.7268 0.944902 12.7125 0.989903 12.6893 1.0349C12.6735 1.0799 12.6518 1.1249 12.6217 1.1624C12.5918 1.2074 12.5617 1.2449 12.5317 1.2824C12.39 1.4174 12.195 1.4999 12 1.4999ZM12 7.4999C11.7968 7.4999 11.6093 7.4174 11.4675 7.2824C11.4375 7.2449 11.4 7.2074 11.3775 7.1624C11.3475 7.1249 11.325 7.0799 11.31 7.0349C11.2875 6.9899 11.2725 6.9449 11.2642 6.8999C11.2575 6.8474 11.25 6.8024 11.25 6.7499C11.25 6.5549 11.3317 6.3599 11.4675 6.2174C11.745 5.9399 12.2475 5.9399 12.5325 6.2174C12.6675 6.3599 12.75 6.5549 12.75 6.7499C12.75 6.8024 12.7425 6.8474 12.7343 6.8999C12.7268 6.9449 12.7125 6.9899 12.6893 7.0349C12.6735 7.0799 12.6518 7.1249 12.6217 7.1624C12.5918 7.2074 12.5617 7.2449 12.5317 7.2824C12.39 7.4174 12.195 7.4999 12 7.4999ZM13.5 20.2499H1.5C1.08525 20.2499 0.75 19.9139 0.75 19.4999V12.7499C0.75 12.5512 0.82875 12.3599 0.96975 12.2197C1.14525 12.0434 2.73975 10.4999 4.5 10.4999C5.958 10.4999 7.839 11.6017 8.47125 11.9999H12C13.2405 11.9999 14.25 13.0094 14.25 14.2499C14.25 14.3827 14.238 14.5124 14.2162 14.6392L20.1345 12.1732C20.8305 11.8829 21.6202 11.9602 22.248 12.3779C22.8757 12.7964 23.25 13.4962 23.25 14.2499C23.25 14.5162 23.109 14.7637 22.878 14.8979L13.878 20.1479C13.7632 20.2147 13.6327 20.2499 13.5 20.2499ZM2.25 18.7499H13.2968L21.6517 13.8764C21.5955 13.7782 21.5153 13.6927 21.4163 13.6259C21.204 13.4842 20.946 13.4594 20.712 13.5577L13.7895 16.4422C13.6972 16.4804 13.599 16.4999 13.5 16.4999H7.5C7.08525 16.4999 6.75 16.1639 6.75 15.7499C6.75 15.3359 7.08525 14.9999 7.5 14.9999H12C12.414 14.9999 12.75 14.6632 12.75 14.2499C12.75 13.8367 12.414 13.4999 12 13.4999H8.25C8.10225 13.4999 7.95675 13.4557 7.83375 13.3747C7.26 12.9922 5.54025 11.9999 4.5 11.9999C3.6825 11.9999 2.73975 12.6599 2.25 13.0792V18.7499Z" fill="#727F8D"/>
</svg>
