<svg width="30" height="20" viewBox="0 0 30 20" fill="none" xmlns="http://www.w3.org/2000/svg">
<rect width="30" height="20" rx="2" fill="#CCECFF"/>
<path d="M13.9976 10.6355H6V13.2998H13.9976V10.6355Z" fill="#84B740"/>
<path d="M13.9976 7H6V9.66663H13.9976V7Z" fill="#259BD6"/>
<path d="M21.9951 12.7584L21.9595 12.7655C21.836 12.7893 21.7909 12.7988 21.7006 12.7988C21.4917 12.7988 21.2447 12.6919 21.2447 12.1885C21.2447 11.9297 21.2874 11.5854 21.6769 11.5854H21.6793C21.7457 11.5901 21.8217 11.5972 21.9642 11.64L21.9951 11.6495L21.9951 12.7584ZM22.0592 10.2485L21.9951 10.2604V11.1912L21.9381 11.1745L21.9215 11.1698C21.8574 11.1508 21.7102 11.1081 21.5677 11.1081C20.7889 11.1081 20.625 11.697 20.625 12.1909C20.625 12.8676 21.0049 13.2571 21.6675 13.2571C21.9476 13.2571 22.1542 13.2286 22.3632 13.1597C22.5555 13.098 22.6244 13.0101 22.6244 12.8225V10.1511C22.4392 10.1844 22.2468 10.2176 22.0592 10.2485Z" fill="#27292D"/>
<path d="M24.3103 12.775L24.2771 12.7845L24.1584 12.8154C24.0468 12.8439 23.947 12.8605 23.871 12.8605C23.6882 12.8605 23.579 12.7703 23.579 12.616C23.579 12.5162 23.6241 12.3476 23.9233 12.3476H24.3103V12.775H24.3103ZM24.0373 11.0962C23.7974 11.0962 23.5505 11.1389 23.2442 11.2339L23.0447 11.2933L23.1112 11.7444L23.3059 11.6803C23.5101 11.6138 23.7642 11.5711 23.9542 11.5711C24.0397 11.5711 24.3009 11.5711 24.3009 11.8537V11.9771H23.9376C23.2751 11.9771 22.9688 12.1885 22.9688 12.642C22.9688 13.029 23.2513 13.2618 23.7262 13.2618C23.8734 13.2618 24.0777 13.2333 24.2534 13.1905L24.2629 13.1881L24.2724 13.1905L24.3317 13.2C24.5169 13.2332 24.7093 13.2665 24.8969 13.3021V11.8203C24.8969 11.3408 24.6072 11.0962 24.0373 11.0962Z" fill="#27292D"/>
<path d="M19.6964 12.775L19.6632 12.7845L19.5445 12.8154C19.4329 12.8439 19.3355 12.8605 19.2571 12.8605C19.0743 12.8605 18.9651 12.7703 18.9651 12.616C18.9651 12.5162 19.0102 12.3476 19.307 12.3476H19.694V12.775H19.6964ZM19.4257 11.0962C19.1835 11.0962 18.939 11.1389 18.6327 11.2339L18.4332 11.2933L18.4996 11.7444L18.6944 11.6803C18.8986 11.6138 19.1527 11.5711 19.3426 11.5711C19.4281 11.5711 19.6893 11.5711 19.6893 11.8537V11.9771H19.326C18.6635 11.9771 18.3549 12.1885 18.3549 12.642C18.3549 13.029 18.6374 13.2618 19.1147 13.2618C19.2619 13.2618 19.4662 13.2333 19.6419 13.1905L19.6514 13.1881L19.6609 13.1905L19.7178 13.2C19.9054 13.2332 20.0954 13.2665 20.283 13.3045V11.8227C20.2854 11.3384 19.9957 11.0962 19.4257 11.0962Z" fill="#27292D"/>
<path d="M17.1961 11.1008C16.8945 11.1008 16.6452 11.2005 16.5526 11.2433L16.5289 11.2551L16.5075 11.2385C16.3792 11.1459 16.1917 11.0984 15.9305 11.0984C15.7001 11.0984 15.4841 11.1316 15.2489 11.2005C15.0471 11.2622 14.9688 11.3596 14.9688 11.5424V13.2355H15.6004V11.6707L15.6313 11.6612C15.7595 11.6184 15.8355 11.6113 15.9091 11.6113C16.092 11.6113 16.1846 11.7086 16.1846 11.8986V13.2379H16.8067V11.8725C16.8067 11.7917 16.7901 11.7443 16.7877 11.7348L16.7663 11.6944L16.8091 11.6754C16.904 11.6327 17.0085 11.6113 17.1177 11.6113C17.2436 11.6113 17.3932 11.6612 17.3932 11.8986V13.2379H18.0129V11.8369C18.0129 11.3406 17.747 11.1008 17.1961 11.1008Z" fill="#27292D"/>
<path d="M23.8449 8.73816C23.7523 8.73816 23.5979 8.72867 23.4768 8.70493L23.4412 8.69779V7.78356C23.4412 7.70756 23.4269 7.66008 23.4246 7.65294L23.4056 7.61496L23.4459 7.59832C23.4554 7.59357 23.4649 7.59118 23.4768 7.58643L23.484 7.58169C23.4982 7.57694 23.5124 7.57219 23.5267 7.56744C23.5338 7.56505 23.5386 7.56269 23.5433 7.56269C23.6834 7.52471 23.8117 7.52946 23.8686 7.52471H23.871C24.2581 7.52471 24.3032 7.86902 24.3032 8.12787C24.3008 8.63132 24.0514 8.73816 23.8449 8.73816ZM23.8425 7C23.8378 7 23.8306 7 23.8259 7C23.4626 7 23.0897 7.09974 22.9568 7.29443C22.8855 7.38943 22.8452 7.50816 22.8428 7.64824V8.59095C22.8428 8.6717 22.8261 8.70254 22.8238 8.70968L22.8024 8.75006H21.6555V8.09468H21.6531C21.6389 7.40367 21.2305 7.02374 20.6392 7.02374H20.5703H20.0622C20.0384 7.19234 20.0194 7.31107 19.9957 7.47968H20.5703C20.8719 7.47968 21.031 7.73613 21.031 8.13031V8.79043L20.9906 8.76905C20.9835 8.76665 20.9337 8.75006 20.8553 8.75006H19.8627C19.8437 8.87589 19.82 9.03974 19.7938 9.2036H22.8451C22.9496 9.18221 23.0707 9.16322 23.1752 9.14663C23.3296 9.22263 23.6169 9.26296 23.8139 9.26296C24.4765 9.26296 24.9063 8.81892 24.9063 8.13505C24.9039 7.45829 24.4884 7.01424 23.8425 7Z" fill="#27292D"/>
<path d="M18.4927 9.48143H18.5212C19.1837 9.48143 19.4924 9.26295 19.4924 8.72395C19.4924 8.33688 19.2098 8.0282 18.7349 8.0282H18.1246C17.9418 8.0282 17.8326 7.92371 17.8326 7.74801C17.8326 7.62928 17.8777 7.48206 18.1769 7.48206H19.5114C19.5398 7.30871 19.5541 7.19947 19.5802 7.02612H18.1935C17.5476 7.02612 17.2223 7.29682 17.2223 7.74801C17.2223 8.19441 17.5048 8.42712 17.9797 8.42712H18.59C18.7728 8.42712 18.8821 8.57199 18.8821 8.72395C18.8821 8.8237 18.8369 9.03028 18.5401 9.03028H18.438L16.4837 9.02553H16.1275C15.826 9.02553 15.6146 8.85458 15.6146 8.45801V8.18491C15.6146 7.77175 15.7785 7.51529 16.1275 7.51529H16.7069C16.733 7.33959 16.7496 7.22796 16.7734 7.06175H16.0515H15.9827C15.3914 7.06175 14.983 7.45832 14.9688 8.14929V8.17542V8.45801C14.983 9.14901 15.3914 9.47907 15.9827 9.47907H16.0515H16.5597L17.6187 9.48147H18.2504L18.4927 9.48143Z" fill="#27292D"/>
</svg>
