<svg width="26" height="16" viewBox="0 0 26 16" fill="none" xmlns="http://www.w3.org/2000/svg">
<path d="M16.13 2.07961L9.67432 2.10181L9.86994 13.9204L16.3256 13.8983L16.13 2.07961Z" fill="#FF5F00"/>
<path d="M10.0993 8.03511C10.0593 5.63129 11.1361 3.4954 12.8228 2.10996C11.5497 1.11093 9.95361 0.510182 8.22343 0.516108C4.12454 0.530146 0.864275 3.90685 0.9334 8.0665C1.00253 12.2261 4.37464 15.5801 8.47353 15.5661C10.2037 15.5602 11.7796 14.9486 13.0194 13.9409C11.2872 12.5881 10.1392 10.4389 10.0993 8.03511Z" fill="#EB001B"/>
<path d="M25.0666 7.93389C25.1358 12.0935 21.8755 15.4702 17.7766 15.4843C16.0464 15.4902 14.4503 14.8895 13.1772 13.8904C14.8845 12.5049 15.9407 10.3691 15.9008 7.96528C15.8608 5.56146 14.7131 3.43319 12.9806 2.05947C14.2204 1.05183 15.7963 0.440216 17.5265 0.43429C21.6254 0.420252 24.9978 3.79514 25.0666 7.93389Z" fill="#F79E1B"/>
</svg>
