<svg width="11" height="12" viewBox="0 0 11 12" fill="none" xmlns="http://www.w3.org/2000/svg">
<path d="M5.00146 6.6C4.81118 6.59787 4.62479 6.65174 4.46737 6.75438C4.30995 6.85702 4.18906 7.00349 4.12097 7.17408C4.05289 7.34467 4.04088 7.53119 4.08656 7.70854C4.13224 7.88588 4.23341 8.04553 4.37646 8.166V9C4.37646 9.15913 4.44231 9.31174 4.55952 9.42426C4.67673 9.53679 4.8357 9.6 5.00146 9.6C5.16723 9.6 5.3262 9.53679 5.44341 9.42426C5.56062 9.31174 5.62646 9.15913 5.62646 9V8.166C5.76952 8.04553 5.87069 7.88588 5.91637 7.70854C5.96205 7.53119 5.95004 7.34467 5.88196 7.17408C5.81387 7.00349 5.69298 6.85702 5.53556 6.75438C5.37814 6.65174 5.19175 6.59787 5.00146 6.6ZM8.12646 4.2V3C8.12646 2.20435 7.79722 1.44129 7.21117 0.87868C6.62512 0.316071 5.83027 0 5.00146 0C4.17266 0 3.37781 0.316071 2.79176 0.87868C2.2057 1.44129 1.87646 2.20435 1.87646 3V4.2C1.37918 4.2 0.90227 4.38964 0.55064 4.72721C0.199009 5.06477 0.00146484 5.52261 0.00146484 6V10.2C0.00146484 10.6774 0.199009 11.1352 0.55064 11.4728C0.90227 11.8104 1.37918 12 1.87646 12H8.12646C8.62375 12 9.10066 11.8104 9.45229 11.4728C9.80392 11.1352 10.0015 10.6774 10.0015 10.2V6C10.0015 5.52261 9.80392 5.06477 9.45229 4.72721C9.10066 4.38964 8.62375 4.2 8.12646 4.2ZM3.12646 3C3.12646 2.52261 3.32401 2.06477 3.67564 1.72721C4.02727 1.38964 4.50418 1.2 5.00146 1.2C5.49875 1.2 5.97566 1.38964 6.32729 1.72721C6.67892 2.06477 6.87646 2.52261 6.87646 3V4.2H3.12646V3ZM8.75146 10.2C8.75146 10.3591 8.68562 10.5117 8.56841 10.6243C8.4512 10.7368 8.29222 10.8 8.12646 10.8H1.87646C1.7107 10.8 1.55173 10.7368 1.43452 10.6243C1.31731 10.5117 1.25146 10.3591 1.25146 10.2V6C1.25146 5.84087 1.31731 5.68826 1.43452 5.57574C1.55173 5.46321 1.7107 5.4 1.87646 5.4H8.12646C8.29222 5.4 8.4512 5.46321 8.56841 5.57574C8.68562 5.68826 8.75146 5.84087 8.75146 6V10.2Z" fill="#444C55"/>
</svg>
