<svg width="13" height="5" viewBox="0 0 13 5" fill="none" xmlns="http://www.w3.org/2000/svg">
<path fill-rule="evenodd" clip-rule="evenodd" d="M11.4404 4.98924C10.3024 4.98924 9.31439 4.17824 9.09039 3.06224L8.84739 1.84624C8.7964 1.66124 8.58539 1.50024 8.3454 1.50024H4.1124C3.8724 1.50024 3.6614 1.66124 3.60039 1.89224L3.36739 3.06224C3.14439 4.17824 2.1554 4.98924 1.0174 4.98924C0.603395 4.98924 0.267395 4.65324 0.267395 4.23924C0.267395 3.82524 0.603395 3.48924 1.0174 3.48924C1.4434 3.48924 1.8134 3.18524 1.8974 2.76724L2.1404 1.55124C2.3874 0.619244 3.1944 0.000244141 4.1124 0.000244141H8.3454C9.2634 0.000244141 10.0704 0.619244 10.3074 1.50624L10.5614 2.76724C10.6444 3.18524 11.0144 3.48924 11.4404 3.48924C11.8544 3.48924 12.1904 3.82524 12.1904 4.23924C12.1904 4.65324 11.8544 4.98924 11.4404 4.98924Z" fill="#FF3030"/>
</svg>
