<svg width="26" height="8" viewBox="0 0 26 8" fill="none" xmlns="http://www.w3.org/2000/svg">
<path d="M23.8187 0.271973H22.2471C21.7719 0.271973 21.4064 0.418171 21.1871 0.893318L18.1901 7.72811H20.3099C20.3099 7.72811 20.6754 6.81437 20.7485 6.59507C20.9678 6.59507 23.0512 6.59507 23.3436 6.59507C23.4167 6.85092 23.5994 7.69156 23.5994 7.69156H25.5L23.8187 0.271973ZM21.3333 5.05998C21.5161 4.62139 22.1374 2.97665 22.1374 2.97665C22.1374 3.0132 22.3202 2.53805 22.3933 2.28221L22.5395 2.9401C22.5395 2.9401 22.9415 4.73104 23.0146 5.09653H21.3333V5.05998Z" fill="#3362AB"/>
<path d="M18.3363 5.27931C18.3363 6.8144 16.9474 7.83779 14.791 7.83779C13.8772 7.83779 13 7.65504 12.5249 7.43574L12.8173 5.75446L13.0731 5.86411C13.731 6.15651 14.1696 6.26615 14.9737 6.26615C15.5585 6.26615 16.1799 6.04686 16.1799 5.53516C16.1799 5.20621 15.924 4.98691 15.1199 4.62142C14.3524 4.25592 13.329 3.67113 13.329 2.61118C13.329 1.1492 14.7544 0.162354 16.7647 0.162354C17.5322 0.162354 18.1901 0.308552 18.5922 0.491301L18.2998 2.09949L18.1536 1.95329C17.7881 1.80709 17.3129 1.66089 16.6185 1.66089C15.8509 1.69744 15.4854 2.02639 15.4854 2.31879C15.4854 2.64773 15.924 2.90358 16.6185 3.23253C17.7881 3.78077 18.3363 4.40212 18.3363 5.27931Z" fill="#3362AB"/>
<path d="M0.5 0.345173L0.53655 0.198975H3.67982C4.11842 0.198975 4.44737 0.345173 4.55702 0.82032L5.25146 4.10979C4.55702 2.35541 2.94883 0.929969 0.5 0.345173Z" fill="#F9B50B"/>
<path d="M9.674 0.271901L6.49417 7.69149H4.33774L2.51025 1.47804C3.82604 2.31868 4.92253 3.63447 5.32458 4.54822L5.54388 5.31576L7.51756 0.235352H9.674V0.271901Z" fill="#3362AB"/>
<path d="M10.5146 0.235352H12.5248L11.2456 7.69149H9.23535L10.5146 0.235352Z" fill="#3362AB"/>
</svg>
