<svg width="16" height="15" viewBox="0 0 16 15" fill="none" xmlns="http://www.w3.org/2000/svg">
<path d="M1.52282 5.80691L5.53112 8.38188C5.87967 8.61597 6.28631 8.61597 6.69295 8.4404C7.04149 8.20632 7.33195 7.85518 7.33195 7.38701V6.62622H9.88797C10.8174 6.62622 11.5726 7.44553 11.5726 8.49893C11.5726 9.4938 10.8174 10.3716 9.88797 10.3716H6.51867C5.58921 10.3716 4.83403 11.1909 4.83403 12.1858C4.83403 13.1807 5.58921 14 6.51867 14H9.88797C12.6763 14 15 11.5421 15 8.55745C15 5.57282 12.7344 3.1149 9.88797 3.1149H7.33195V2.17854C7.33195 1.71037 7.09959 1.30071 6.69295 1.12515C6.3444 0.94958 5.87967 0.949579 5.53112 1.18367L1.52282 3.75864C1.17427 3.99273 1 4.34386 1 4.75351C1 5.16317 1.17427 5.57282 1.52282 5.80691ZM2.16183 4.75351L6.11203 2.17854V3.52455C6.11203 3.87568 6.3444 4.10977 6.69295 4.10977H9.82988C11.9793 4.10977 13.7801 6.041 13.7801 8.38188C13.7801 10.7228 12.0373 12.7125 9.82988 12.7125H6.46058C6.17012 12.7125 5.93776 12.4199 5.93776 12.0688C5.93776 11.7176 6.17012 11.425 6.46058 11.425H9.82988C11.3983 11.425 12.6763 10.079 12.6763 8.38188C12.6763 6.68474 11.3983 5.33874 9.82988 5.33874H6.69295C6.3444 5.33874 6.11203 5.57282 6.11203 5.92396L6.17012 7.32848L2.16183 4.81204V4.75351Z" fill="white" stroke="white" stroke-width="0.5"/>
</svg>
